<svg viewBox="0 0 43 32" fill="none" xmlns="http://www.w3.org/2000/svg">
  <path d="M0 9.3032V23.9959L12.7135 31.3423V25.2944L5.23806 20.972V12.3271L0 9.3032ZM1.11833 7.3464L6.35639 10.3703L19.0699 3.02392L13.8318 0L1.11833 7.3464ZM14.9501 25.2946V31.3426L35.139 19.6738V13.6259L14.9501 25.2946ZM23.5443 28.9761L28.7823 32L41.4961 24.6536L36.2578 21.6119L23.5443 28.9761ZM42.615 22.6975V8.0048L29.9019 0.64064V6.70632L37.3771 11.0287V19.6736L42.615 22.6975ZM27.6631 6.70624V0.64064L7.47432 12.3272V18.3751L27.6631 6.70624ZM8.5941 20.332L13.8322 23.3559L34.0212 11.6693L28.783 8.64536L8.5941 20.332Z" fill="white"/>
</svg>
